<svg width="100" height="30" viewBox="0 0 100 30" fill="none" xmlns="http://www.w3.org/2000/svg">
<g clip-path="url(#clip0_5_7)">
<path d="M7.97949 20.1738V22.5645H9.0957C9.49414 22.5645 9.77832 22.6406 9.94824 22.793C10.124 22.9453 10.2119 23.1943 10.2119 23.54C10.2119 23.8799 10.127 24.123 9.95703 24.2695C9.78711 24.416 9.5 24.4893 9.0957 24.4893H5.36914C4.96484 24.4893 4.68066 24.416 4.5166 24.2695C4.35254 24.1289 4.27051 23.8857 4.27051 23.54C4.27051 23.1943 4.35254 22.9453 4.5166 22.793C4.68652 22.6406 4.9707 22.5645 5.36914 22.5645H5.8877V14.8037H5.74707C5.43652 14.8037 5.19922 14.7217 5.03516 14.5576C4.87109 14.3936 4.78906 14.1533 4.78906 13.8369C4.78906 13.4912 4.87109 13.2451 5.03516 13.0986C5.19922 12.9521 5.4834 12.8789 5.8877 12.8789H7.24121C7.41113 12.8789 7.53711 12.9111 7.61914 12.9756C7.70117 13.0342 7.74219 13.1221 7.74219 13.2393V13.8721C8.04102 13.4736 8.40137 13.1748 8.82324 12.9756C9.25098 12.7705 9.73145 12.668 10.2646 12.668C11.4658 12.668 12.4619 13.0518 13.2529 13.8193C14.0439 14.5869 14.4395 15.5537 14.4395 16.7197C14.4395 17.9385 14.0557 18.9492 13.2881 19.752C12.5205 20.5488 11.5537 20.9473 10.3877 20.9473C9.91309 20.9473 9.46777 20.8828 9.05176 20.7539C8.6416 20.6191 8.28418 20.4258 7.97949 20.1738ZM10.0098 14.54C9.42969 14.54 8.95215 14.7539 8.57715 15.1816C8.20215 15.6094 8.01465 16.1572 8.01465 16.8252C8.01465 17.4932 8.20215 18.041 8.57715 18.4688C8.95215 18.8965 9.42969 19.1104 10.0098 19.1104C10.5898 19.1104 11.0674 18.8965 11.4424 18.4688C11.8232 18.0352 12.0137 17.4873 12.0137 16.8252C12.0137 16.1572 11.8262 15.6094 11.4512 15.1816C11.0762 14.7539 10.5957 14.54 10.0098 14.54ZM21.8486 14.8037H21.708C21.3916 14.8037 21.1514 14.7217 20.9873 14.5576C20.8291 14.3936 20.75 14.1533 20.75 13.8369C20.75 13.4912 20.832 13.2451 20.9961 13.0986C21.1602 12.9521 21.4443 12.8789 21.8486 12.8789H23.5098C23.668 12.8789 23.791 12.9141 23.8789 12.9844C23.9668 13.0488 24.0107 13.1396 24.0107 13.2568V19.0752H24.1514C24.4678 19.0752 24.708 19.1572 24.8721 19.3213C25.042 19.4854 25.127 19.7197 25.127 20.0244C25.127 20.376 25.042 20.6279 24.8721 20.7803C24.7021 20.9268 24.415 21 24.0107 21H22.5342C22.3701 21 22.2412 20.9648 22.1475 20.8945C22.0596 20.8242 22.0156 20.7275 22.0156 20.6045V19.9365C21.7344 20.3584 21.3887 20.6748 20.9785 20.8857C20.5742 21.0967 20.0967 21.2021 19.5459 21.2021C18.6025 21.2021 17.9023 20.918 17.4453 20.3496C16.9883 19.7812 16.7598 18.9111 16.7598 17.7393V14.8037H16.6104C16.2939 14.8037 16.0537 14.7217 15.8896 14.5576C15.7256 14.3936 15.6436 14.1533 15.6436 13.8369C15.6436 13.4912 15.7256 13.2451 15.8896 13.0986C16.0596 12.9521 16.3496 12.8789 16.7598 12.8789H18.4121C18.5703 12.8789 18.6904 12.9141 18.7725 12.9844C18.8545 13.0488 18.8955 13.1396 18.8955 13.2568V17.3438C18.8955 18.0645 18.9951 18.5713 19.1943 18.8643C19.3936 19.1572 19.7217 19.3037 20.1787 19.3037C20.665 19.3037 21.0635 19.125 21.374 18.7676C21.6904 18.4043 21.8486 17.9297 21.8486 17.3438V14.8037ZM33.8809 13.3535C33.9512 13.125 34.0596 12.9551 34.2061 12.8438C34.3584 12.7266 34.5518 12.668 34.7861 12.668C35.1025 12.668 35.3281 12.7646 35.4629 12.958C35.5977 13.1455 35.665 13.4736 35.665 13.9424V15.3838C35.665 15.7412 35.5918 16.0049 35.4453 16.1748C35.2988 16.3447 35.0732 16.4297 34.7686 16.4297C34.5518 16.4297 34.3701 16.3799 34.2236 16.2803C34.0771 16.1807 33.9219 15.9902 33.7578 15.709C33.5234 15.3105 33.2158 15.0176 32.835 14.8301C32.4541 14.6367 31.9883 14.54 31.4375 14.54C30.752 14.54 30.1895 14.7656 29.75 15.2168C29.3164 15.6621 29.0996 16.2334 29.0996 16.9307C29.0996 17.6631 29.3252 18.252 29.7764 18.6973C30.2275 19.1426 30.834 19.3652 31.5957 19.3652C32.2871 19.3652 32.9727 19.1748 33.6523 18.7939C34.3379 18.4072 34.7568 18.2139 34.9092 18.2139C35.126 18.2139 35.3047 18.2988 35.4453 18.4688C35.5918 18.6328 35.665 18.8408 35.665 19.0928C35.665 19.6436 35.2461 20.1357 34.4082 20.5693C33.5762 21.0029 32.5859 21.2197 31.4375 21.2197C30.0195 21.2197 28.8652 20.8213 27.9746 20.0244C27.0898 19.2275 26.6475 18.2021 26.6475 16.9482C26.6475 15.7236 27.0869 14.7041 27.9658 13.8896C28.8447 13.0752 29.9521 12.668 31.2881 12.668C31.7393 12.668 32.1787 12.7236 32.6064 12.835C33.0342 12.9463 33.459 13.1191 33.8809 13.3535ZM40.666 13.7666C40.8711 13.4092 41.1611 13.1367 41.5361 12.9492C41.9111 12.7617 42.3594 12.668 42.8809 12.668C43.8066 12.668 44.5186 12.9375 45.0166 13.4766C45.5205 14.0156 45.7725 14.7891 45.7725 15.7969V19.0752H45.9219C46.2324 19.0752 46.4668 19.1572 46.625 19.3213C46.7891 19.4795 46.8711 19.7139 46.8711 20.0244C46.8711 20.3701 46.7861 20.6191 46.6162 20.7715C46.4521 20.9238 46.1709 21 45.7725 21H43.5928C43.2002 21 42.9189 20.9238 42.749 20.7715C42.585 20.6191 42.5029 20.3701 42.5029 20.0244C42.5029 19.708 42.582 19.4707 42.7402 19.3125C42.8984 19.1543 43.1357 19.0752 43.4521 19.0752H43.5928V16.5176C43.5928 15.7676 43.499 15.249 43.3115 14.9619C43.1299 14.6689 42.8164 14.5225 42.3711 14.5225C41.9023 14.5225 41.501 14.7129 41.167 15.0938C40.833 15.4688 40.666 15.9434 40.666 16.5176V19.0752H40.8066C41.123 19.0752 41.3604 19.1572 41.5186 19.3213C41.6826 19.4795 41.7646 19.7139 41.7646 20.0244C41.7646 20.3701 41.6797 20.6191 41.5098 20.7715C41.3398 20.9238 41.0586 21 40.666 21H38.4863C38.082 21 37.7979 20.9268 37.6338 20.7803C37.4697 20.6279 37.3877 20.376 37.3877 20.0244C37.3877 19.7139 37.4668 19.4795 37.625 19.3213C37.7891 19.1572 38.0264 19.0752 38.3369 19.0752H38.4863V11.4463H38.3369C38.0264 11.4463 37.7861 11.3643 37.6162 11.2002C37.4521 11.0303 37.3701 10.7871 37.3701 10.4707C37.3701 10.125 37.4551 9.87598 37.625 9.72363C37.7949 9.57129 38.082 9.49512 38.4863 9.49512H40.1387C40.3379 9.49512 40.4756 9.53613 40.5518 9.61816C40.6279 9.7002 40.666 9.85254 40.666 10.0752V13.7666ZM52.8916 14.54C52.2061 14.54 51.6406 14.7656 51.1953 15.2168C50.7559 15.6621 50.5361 16.2334 50.5361 16.9307C50.5361 17.6338 50.7559 18.2168 51.1953 18.6797C51.6406 19.1367 52.2061 19.3652 52.8916 19.3652C53.5771 19.3652 54.1426 19.1367 54.5879 18.6797C55.0332 18.2168 55.2559 17.6338 55.2559 16.9307C55.2559 16.2334 55.0332 15.6621 54.5879 15.2168C54.1484 14.7656 53.583 14.54 52.8916 14.54ZM52.8916 12.6855C54.3154 12.6855 55.4697 13.084 56.3545 13.8809C57.2393 14.6777 57.6816 15.7002 57.6816 16.9482C57.6816 18.2021 57.2393 19.2275 56.3545 20.0244C55.4697 20.8213 54.3154 21.2197 52.8916 21.2197C51.4736 21.2197 50.3223 20.8213 49.4375 20.0244C48.5527 19.2275 48.1104 18.2021 48.1104 16.9482C48.1104 15.7002 48.5527 14.6777 49.4375 13.8809C50.3281 13.084 51.4795 12.6855 52.8916 12.6855ZM59.8537 20.244C59.8537 19.98 59.9437 19.758 60.1237 19.578C60.3157 19.386 60.5437 19.29 60.8077 19.29C61.0717 19.29 61.2937 19.386 61.4737 19.578C61.6657 19.758 61.7617 19.98 61.7617 20.244C61.7617 20.508 61.6657 20.736 61.4737 20.928C61.2937 21.108 61.0717 21.198 60.8077 21.198C60.5437 21.198 60.3157 21.108 60.1237 20.928C59.9437 20.736 59.8537 20.508 59.8537 20.244ZM71.3574 21C71.2344 21 71.1465 20.9707 71.0938 20.9121C71.0469 20.8477 71.0234 20.7275 71.0234 20.5518V19.8311C70.6719 20.2705 70.2324 20.6133 69.7051 20.8594C69.1777 21.0996 68.6064 21.2197 67.9912 21.2197C66.8838 21.2197 65.9551 20.8271 65.2051 20.042C64.4609 19.251 64.0889 18.2695 64.0889 17.0977C64.0889 15.8848 64.4873 14.877 65.2842 14.0742C66.0811 13.2656 67.0742 12.8613 68.2637 12.8613C68.8672 12.8613 69.4092 12.9697 69.8896 13.1865C70.3701 13.3975 70.7832 13.7109 71.1289 14.127V10.7607H70.6631C70.1533 10.7607 69.8223 10.7168 69.6699 10.6289C69.5234 10.5352 69.4502 10.3682 69.4502 10.1279C69.4502 9.91699 69.5088 9.75879 69.626 9.65332C69.749 9.54785 69.9248 9.49512 70.1533 9.49512H71.9551C72.1309 9.49512 72.2568 9.52441 72.333 9.58301C72.415 9.6416 72.4561 9.73242 72.4561 9.85547V19.7607H72.8516C73.1387 19.7607 73.3467 19.8105 73.4756 19.9102C73.6045 20.0039 73.6689 20.1562 73.6689 20.3672C73.6689 20.5664 73.6133 20.7217 73.502 20.833C73.3906 20.9443 73.2412 21 73.0537 21H71.3574ZM65.6006 17.0537C65.6006 17.8623 65.8613 18.5244 66.3828 19.04C66.9043 19.5557 67.5664 19.8135 68.3691 19.8135C69.1777 19.8135 69.8428 19.5469 70.3643 19.0137C70.8857 18.4746 71.1465 17.792 71.1465 16.9658C71.1465 16.1514 70.8857 15.4805 70.3643 14.9531C69.8486 14.4258 69.1836 14.1621 68.3691 14.1621C67.543 14.1621 66.875 14.4287 66.3652 14.9619C65.8555 15.4951 65.6006 16.1924 65.6006 17.0537ZM76.5518 17.3262C76.5986 18.1699 76.8828 18.8232 77.4043 19.2861C77.9316 19.7432 78.6494 19.9717 79.5576 19.9717C80.2432 19.9717 80.9902 19.79 81.7988 19.4268C82.6074 19.0576 83.0967 18.873 83.2666 18.873C83.4424 18.873 83.5889 18.9287 83.7061 19.04C83.8232 19.1514 83.8818 19.2891 83.8818 19.4531C83.8818 19.623 83.8203 19.7783 83.6973 19.9189C83.5742 20.0596 83.3779 20.1973 83.1084 20.332C82.5225 20.6191 81.916 20.8389 81.2891 20.9912C80.668 21.1436 80.0498 21.2197 79.4346 21.2197C78.0986 21.2197 77.0293 20.8359 76.2266 20.0684C75.4238 19.2949 75.0225 18.2725 75.0225 17.001C75.0225 15.7061 75.4473 14.6572 76.2969 13.8545C77.1465 13.0518 78.2539 12.6504 79.6191 12.6504C80.8555 12.6504 81.8809 13.0254 82.6953 13.7754C83.5098 14.5254 83.917 15.4336 83.917 16.5C83.917 16.8281 83.8467 17.0479 83.7061 17.1592C83.5713 17.2705 83.1992 17.3262 82.5898 17.3262H82.458H76.5518ZM76.5957 16.1748H82.3174C82.2295 15.4775 81.9365 14.918 81.4385 14.4961C80.9463 14.0684 80.3398 13.8545 79.6191 13.8545C78.8398 13.8545 78.1836 14.0596 77.6504 14.4697C77.1172 14.8799 76.7656 15.4482 76.5957 16.1748ZM86.3076 14.127C85.9209 14.127 85.6543 14.0801 85.5078 13.9863C85.3672 13.8926 85.2969 13.7285 85.2969 13.4941C85.2969 13.2891 85.3555 13.1367 85.4727 13.0371C85.5898 12.9316 85.7656 12.8789 86 12.8789H88.4609C88.7949 12.8789 89.0176 12.9258 89.1289 13.0195C89.2402 13.1074 89.2959 13.2656 89.2959 13.4941C89.2959 13.7285 89.2227 13.8926 89.0762 13.9863C88.9297 14.0801 88.6602 14.127 88.2676 14.127H87.9424L90.2275 19.8135L92.7676 14.127H92.2402C91.7891 14.127 91.4844 14.083 91.3262 13.9951C91.168 13.9014 91.0889 13.7344 91.0889 13.4941C91.0889 13.2656 91.1445 13.1074 91.2559 13.0195C91.3672 12.9258 91.5898 12.8789 91.9238 12.8789H94.6396C94.874 12.8789 95.0498 12.9316 95.167 13.0371C95.2842 13.1367 95.3428 13.2891 95.3428 13.4941C95.3428 13.7285 95.2695 13.8926 95.123 13.9863C94.9824 14.0801 94.7188 14.127 94.332 14.127H94.1738L91.2734 20.5342C91.127 20.8564 90.9805 21.0645 90.834 21.1582C90.6934 21.2578 90.4854 21.3076 90.21 21.3076C89.958 21.3076 89.7617 21.2607 89.6211 21.167C89.4863 21.0732 89.3457 20.8623 89.1992 20.5342L86.3076 14.127Z" fill="white"/>
</g>
<defs>
<clipPath id="clip0_5_7">
<rect width="100" height="30" fill="white"/>
</clipPath>
</defs>
</svg>
